PathFileType	4	(X/Y/Z)	C:/Users/beibeiliu/ov580/test_trc/User1\sequence.5_training_dense_right.trc
DataRate	CameraRate	NumFrames	NumMarkers	Units	OrigDataRate	OrigDataStartFrame	OrigNumFrames
120	120	16	19	mm	120	1	269
Frame#	Time	ThumbCMC			ThumbMCP			ThumbIP			ThumbTip			IndexMCP			IndexPIP			IndexTip			MiddleMCP			MiddlePIP			MiddleTip			RingMCP			RingPIP			RingTip			PinkyMCP			PinkyPIP			PinkyTip			BackHand1			BackHand2			BackHand3	
		X0	Y0	Z0	X1	Y1	Z1	X2	Y2	Z2	X3	Y3	Z3	X4	Y4	Z4	X5	Y5	Z5	X6	Y6	Z6	X7	Y7	Z7	X8	Y8	Z8	X9	Y9	Z9	X10	Y10	Z10	X11	Y11	Z11	X12	Y12	Z12	X13	Y13	Z13	X14	Y14	Z14	X15	Y15	Z15	X16	Y16	Z16	X17	Y17	Z17	X18	Y18	Z18	
0	0	143.656	74.9878	37.9924	115.24	59.9517	28.7417	97.0382	47.5036	11.8349	80.2581	38.9154	3.52979	159.3	55.8321	-44.4332	159.25	47.9977	-72.0782	158.602	44.7108	-92.9624	192.021	58.3036	-50.4808	191.244	52.1221	-77.5302	199.543	45.4957	-106.225	213.885	53.3283	-40.7491	220.686	49.6434	-66.7691	230.125	45.516	-90.5759	235.849	42.6912	-16.1548	250.134	37.2551	-28.4852	264.733	38.6827	-42.889	206.995	74.7608	6.2763	206.436	93.7617	36.1498	172.977	87.7753	18.3224	
1	0.00833333	141.193	73.6622	33.3635	119.6	59.2896	28.6863	98.4718	47.0701	9.62801	78.9977	41.0087	6.80572	159.116	54.9761	-44.5309	156.69	49.4078	-71.8131	161.945	44.1088	-96.5587	188.203	58.3098	-50.1305	190.988	51.5955	-81.8496	199.081	45.8836	-108.604	211.779	53.3989	-43.6648	223.93	49.6279	-63.3406	228.052	45.0668	-90.9943	234.783	42.331	-16.0368	250.766	36.8718	-29.5695	263.462	37.4278	-48.4236	206.698	74.2249	6.35664	206.687	92.5458	35.9093	172.475	87.6259	14.7572	
2	0.0166667	140.423	76.3374	37.8339	119.027	58.6857	26.0087	97.1763	48.4446	10.3895	80.7453	41.1028	3.6924	159.441	55.4531	-45.3446	155.734	50.1465	-68.5257	162.172	44.6246	-93.7382	188.741	58.0143	-55.4389	190.418	52.3074	-81.7378	199.3	45.9442	-110.245	214.223	53.7364	-42.0136	219.624	49.7695	-64.4628	228.148	44.2876	-89.9515	235.565	43.295	-17.8507	248.92	36.5743	-27.6788	261.127	38.2582	-45.2667	207.601	74.3987	5.02311	209.736	92.552	32.8903	174.481	88.902	15.6947	
3	0.025	138.739	75.0301	34.5466	116.945	60.0496	28.3243	97.0242	47.3997	8.55068	77.8486	40.8711	4.14872	157.005	55.9399	-44.1191	155.73	49.1528	-73.2143	163.019	44.5914	-95.9014	192.216	58.3177	-53.3312	194.256	51.8926	-82.6113	201.158	45.4839	-108.426	212.713	54.8144	-44.4983	221.561	50.4598	-68.7499	226.769	44.0539	-91.507	234.807	43.8135	-17.2311	246.736	37.337	-27.3898	264.733	38.0433	-47.8745	204.521	76.1809	3.69084	207.557	91.7127	35.6813	170.287	86.5709	12.1695	
4	0.0333333	137.088	75.6523	32.0851	117.343	59.6595	26.1838	96.6087	48.4156	9.15558	77.7511	40.0438	2.2317	158.367	55.9233	-48.6843	155.159	50.8923	-71.0891	162.822	44.4193	-96.0387	186.838	59.4011	-51.5078	191.74	51.6099	-83.4208	197.458	46.8658	-107.906	210.858	54.8186	-40.3591	218.395	50.4111	-70.7226	226.768	45.2918	-93.8825	234.476	44.3815	-14.7938	249.56	37.7001	-31.6722	264.665	37.2731	-48.5835	204.517	76.8153	6.1965	209.855	93.8609	34.0815	175.013	88.0191	15.0093	
5	0.0416667	137.553	74.79	30.7933	118.778	58.86	24.7402	99.5154	48.617	11.9866	80.0897	39.9947	3.35511	155.181	55.7242	-47.6685	159.222	49.7807	-73.8905	156.744	45.8417	-99.6234	189.22	59.2751	-52.0262	193.652	53.0204	-80.3583	196.628	46.8525	-106.962	210.305	54.9721	-44.6429	220.644	51.5703	-67.6541	223.709	44.56	-91.0104	237.245	43.4097	-17.4984	246.081	38.3837	-30.1904	266.688	38.9791	-48.7127	208.668	74.887	3.56567	207.027	91.8729	31.1312	174.608	86.6525	10.7441	
6	0.05	139.698	74.199	31.9084	115.374	61.1984	26.5166	93.9946	50.0046	10.5534	76.6155	40.6946	5.13005	156.164	55.5712	-47.9065	153.746	50.3145	-74.3612	161.875	45.2599	-98.2172	186.158	59.7277	-53.7549	190.796	52.8751	-80.897	197.163	46.6409	-109.053	213.898	55.3484	-44.1066	221.188	51.245	-67.7895	226.691	45.2976	-90.5331	233.281	44.2027	-17.1024	250.289	36.8732	-29.8211	266.409	37.792	-49.333	204.637	77.302	5.21749	204.323	92.6463	33.0129	171.896	86.3833	11.5167	
7	0.0583333	138.758	75.4075	36.0164	115.63	60.3022	26.1793	95.5518	49.3347	11.1857	76.1594	40.506	3.07195	154.057	56.2174	-48.4414	156.891	49.0379	-75.9834	159.573	45.706	-100.946	188.278	58.5336	-55.1928	191.116	52.4191	-82.5951	200.571	46.4716	-112.898	214.49	53.9529	-44.7613	222.308	50.6032	-68.8988	223.782	45.9451	-91.0708	233.043	44.9533	-16.2696	245.738	38.1333	-29.2781	264.907	39.9277	-46.9122	204.004	76.6307	0.544821	204.834	93.9237	34.2389	169.326	88.0718	13.8692	
8	0.0666667	140.909	72.8046	31.2613	115.786	59.7286	26.7157	98.1086	48.8814	12.2502	77.4842	40.2481	5.40017	156.015	54.6579	-49.4337	155.273	49.8471	-74.3231	160.467	45.1043	-96.0476	188.766	58.728	-53.9094	192.309	51.383	-84.5657	196.842	46.0872	-107.218	210.465	55.262	-41.6285	218.442	50.5194	-66.7154	226.28	45.9624	-93.5373	235.018	44.0953	-17.1577	246.375	36.7129	-31.9158	263.854	38.0462	-43.8504	208.28	76.474	2.30342	208.301	91.7037	31.6102	173.017	86.9667	15.04	
9	0.075	139.053	76.1713	35.3494	115.234	59.2397	26.2661	96.8198	49.5807	12.2762	76.5952	41.0871	3.5739	158.001	55.6017	-49.4954	153.477	49.907	-70.9938	159.263	44.4196	-99.1045	185.63	59.3467	-57.0954	191.335	51.8423	-84.5445	195.377	46.9824	-108.373	211.368	55.3684	-41.6708	217.287	50.7886	-67.1361	224.195	45.5685	-92.3645	236.643	43.6432	-16.2391	246.886	37.2549	-30.9127	260.875	39.463	-48.4765	203.099	75.0557	5.15377	208.291	90.3519	30.7974	175.105	89.0068	14.965	
10	0.0833333	141.503	74.2642	31.8879	113.445	59.5092	24.0781	93.7813	48.7302	11.593	76.6956	39.2435	2.20455	155.779	56.6143	-46.1604	153.552	49.7824	-75.2957	162.099	45.5745	-96.645	188.098	58.2073	-55.9853	193.386	52.7917	-80.8021	197.662	45.9491	-108.753	213.707	54.4473	-45.1403	219.173	50.8419	-68.0203	225.068	44.8949	-92.3493	237.003	42.2026	-16.1575	246.571	36.4698	-31.3534	263.743	38.3845	-50.8102	203.652	75.5824	6.32008	207.276	92.8609	33.6646	174.177	86.5196	15.8997	
11	0.0916667	140.386	74.8967	36.0578	119.108	57.8856	24.4379	94.4786	46.6597	7.61653	74.6903	38.8943	1.0361	154.064	56.0665	-48.8987	155.858	50.6292	-74.8677	159.632	46.2325	-99.8717	185.077	59.1168	-53.5317	191.85	52.9542	-83.0996	194.446	46.7689	-110.305	212.822	54.7872	-45.083	220.162	49.8932	-67.991	224.525	43.4486	-94.9133	234.601	41.8626	-22.0928	249.369	35.8167	-33.5228	264.332	36.0549	-49.0516	206.051	74.1433	1.13177	206.662	91.3416	32.1882	170.188	85.4764	11.6402	
12	0.1	138.072	74.9715	34.9815	118.015	57.4673	24.3369	97.8411	47.0074	11.7513	78.3733	39.0574	3.49572	153.404	57.605	-51.3356	155.975	51.3825	-74.7118	156.135	47.358	-95.8059	185.535	59.3433	-58.7355	193.943	51.2794	-85.2681	197.618	45.0143	-110.31	211.887	54.3497	-46.7772	222.194	49.1106	-71.2505	223.114	43.8784	-95.0771	236.763	42.2631	-20.7119	246.773	35.2769	-34.0083	261.548	34.0002	-51.9169	204.47	76.8759	1.59822	206.527	90.2792	31.8341	170.909	88.9766	14.4066	
13	0.108333	141.758	73.0864	31.8122	116.726	56.4984	23.8498	98.7791	46.1098	8.75303	79.3532	38.0476	4.11867	157.29	57.6936	-48.6077	157.239	52.6756	-74.7909	157.857	49.2625	-101.707	190.212	60.0134	-54.0701	193.236	52.7151	-81.698	198.906	44.9455	-112.81	214.935	54.0973	-47.3352	216.085	49.3338	-70.489	224.542	43.0605	-91.4925	236.174	42.8961	-17.3254	248.747	33.2934	-34.1339	258.411	32.786	-51.2111	204.229	77.0277	4.99768	206.951	90.3019	30.9383	170.457	89.36	14.6102	
14	0.116667	139.907	73.2983	31.9873	114.548	57.7773	26.2442	98.116	45.7633	9.02352	76.7101	36.3964	-1.07197	154.757	59.8639	-52.6819	157.075	53.3236	-77.4731	156.625	50.2922	-99.5497	185.899	60.2539	-56.8125	193.339	53.1392	-81.4652	197.051	44.4853	-112.352	215.262	54.4468	-46.1787	219.959	48.6927	-73.8456	224.053	40.8292	-97.1105	234.66	42.4348	-18.9674	248.656	34.5477	-30.8708	261.775	29.8146	-53.922	207.893	76.4908	3.88008	205.406	91.8716	32.8694	171.671	86.7889	11.9874	
15	0.125	138.653	74.3769	32.0354	117.303	56.462	24.8746	98.0623	45.8034	10.0504	80.8789	35.7901	1.38699	154.006	62.1076	-51.4171	153.606	55.7135	-77.2907	154.893	53.1691	-99.7534	187.202	60.7944	-58.8795	188.778	52.6023	-86.2756	193.654	43.9897	-111.183	210.622	55.0317	-48.7007	221.596	48.2789	-69.5798	225.302	37.4719	-95.2431	235.495	42.594	-20.2939	247.044	32.6444	-32.9872	258.838	26.7958	-54.523	209.611	79.1136	4.78973	209.983	92.1124	31.4238	172.628	88.8415	16.1526	
